HIERARCHY
ROOT Hips
{
	OFFSET 0.000000 0.000000 0.000000
	CHANNELS 6 Xposition Yposition Zposition Xrotation Yrotation Zrotation
	JOINT LeftUpLeg_virtual
	{
		OFFSET 0.000000 0.000000 0.000000
		CHANNELS 3 Xrotation Yrotation Zrotation
		JOINT LeftUpLeg
		{
			OFFSET 15.427100 -6.655098 0.678600
			CHANNELS 3 Xrotation Yrotation Zrotation
			JOINT LeftLeg
			{
				OFFSET 4.081073 -39.591068 13.024000
				CHANNELS 3 Xrotation Yrotation Zrotation
				JOINT LeftFoot
				{
					OFFSET -4.081074 -37.707932 -15.979700
					CHANNELS 3 Xrotation Yrotation Zrotation
					JOINT LeftToeBase
					{
						OFFSET 5.346399 -15.068900 20.645000
						CHANNELS 3 Xrotation Yrotation Zrotation
						JOINT LeftToe_End
						{
							OFFSET 2.754700 0.931300 11.300900
							CHANNELS 3 Xrotation Yrotation Zrotation
							End Site
							{
								OFFSET 0 0 0
							}
						}
					}
				}
			}
		}
	}
	JOINT RightUpLeg_virtual
	{
		OFFSET 0.000000 0.000000 0.000000
		CHANNELS 3 Xrotation Yrotation Zrotation
		JOINT RightUpLeg
		{
			OFFSET -15.569500 -6.655098 0.678600
			CHANNELS 3 Xrotation Yrotation Zrotation
			JOINT RightLeg
			{
				OFFSET -4.081825 -39.591045 13.023800
				CHANNELS 3 Xrotation Yrotation Zrotation
				JOINT RightFoot
				{
					OFFSET 4.081824 -37.707954 -15.979600
					CHANNELS 3 Xrotation Yrotation Zrotation
					JOINT RightToeBase
					{
						OFFSET -5.346400 -15.068900 20.645000
						CHANNELS 3 Xrotation Yrotation Zrotation
						JOINT RightToe_End
						{
							OFFSET -2.754700 0.931300 11.300900
							CHANNELS 3 Xrotation Yrotation Zrotation
							End Site
							{
								OFFSET 0 0 0
							}
						}
					}
				}
			}
		}
	}
	JOINT Spine_virtual
	{
		OFFSET 0.000000 0.000000 0.000000
		CHANNELS 3 Xrotation Yrotation Zrotation
		JOINT Spine
		{
			OFFSET -0.279200 12.230698 -2.892100
			CHANNELS 3 Xrotation Yrotation Zrotation
			JOINT Spine1
			{
				OFFSET -0.232667 10.192268 -1.242267
				CHANNELS 3 Xrotation Yrotation Zrotation
				JOINT Spine1_split
				{
					OFFSET -0.232667 10.192268 -1.242267
					CHANNELS 3 Xrotation Yrotation Zrotation
					JOINT Spine2
					{
						OFFSET -0.232667 10.192268 -1.242267
						CHANNELS 3 Xrotation Yrotation Zrotation
						JOINT Neck_virtual
						{
							OFFSET 0.000000 0.000000 0.000000
							CHANNELS 3 Xrotation Yrotation Zrotation
							JOINT Neck
							{
								OFFSET -0.418800 17.814194 8.416900
								CHANNELS 3 Xrotation Yrotation Zrotation
								JOINT Head
								{
									OFFSET 0.000000 7.031097 3.806800
									CHANNELS 3 Xrotation Yrotation Zrotation
									JOINT HeadTop_End
									{
										OFFSET 0.000000 24.646606 12.978600
										CHANNELS 3 Xrotation Yrotation Zrotation
										End Site
										{
											OFFSET 0 0 0
										}
									}
								}
							}
						}
						JOINT LeftShoulder_virtual
						{
							OFFSET 0.000000 0.000000 0.000000
							CHANNELS 3 Xrotation Yrotation Zrotation
							JOINT LeftShoulder
							{
								OFFSET 8.476499 7.247704 -3.868750
								CHANNELS 3 Xrotation Yrotation Zrotation
								JOINT LeftShoulder_split
								{
									OFFSET 8.476499 7.247704 -3.868750
									CHANNELS 3 Xrotation Yrotation Zrotation
									JOINT LeftArm
									{
										OFFSET 9.308998 -2.777710 0.208600
										CHANNELS 3 Xrotation Yrotation Zrotation
										JOINT LeftForeArm
										{
											OFFSET 29.972298 0.000000 0.000000
											CHANNELS 3 Xrotation Yrotation Zrotation
											JOINT LeftHand
											{
												OFFSET 26.026505 0.000000 0.000000
												CHANNELS 3 Xrotation Yrotation Zrotation
												End Site
												{
													OFFSET 0 0 0
												}
											}
										}
									}
								}
							}
						}
						JOINT RightShoulder_virtual
						{
							OFFSET 0.000000 0.000000 0.000000
							CHANNELS 3 Xrotation Yrotation Zrotation
							JOINT RightShoulder
							{
								OFFSET -7.570500 7.247704 -3.868750
								CHANNELS 3 Xrotation Yrotation Zrotation
								JOINT RightShoulder_split
								{
									OFFSET -7.570500 7.247704 -3.868750
									CHANNELS 3 Xrotation Yrotation Zrotation
									JOINT RightArm
									{
										OFFSET -9.308998 -2.777710 0.208500
										CHANNELS 3 Xrotation Yrotation Zrotation
										JOINT RightForeArm
										{
											OFFSET -29.972300 0.000000 0.000000
											CHANNELS 3 Xrotation Yrotation Zrotation
											JOINT RightHand
											{
												OFFSET -26.026505 0.000000 0.000000
												CHANNELS 3 Xrotation Yrotation Zrotation
												End Site
												{
													OFFSET 0 0 0
												}
											}
										}
									}
								}
							}
						}
					}
				}
			}
		}
	}
}
MOTION
Frames: 5
Frame Time: 0.03333333
4.476627 76.444878 -14.066593 0.000000 0.000000 0.000000 45.795028 4.852478 -2.910420 -88.015204 4.959304 20.779286 39.572555 9.594919 -3.296744 6.186503 14.408578 -9.545890 2.062248 1.128292 -1.457942 0.000000 0.000000 0.000000 46.032610 4.591286 -1.166767 -41.950267 9.567113 -12.818283 62.530477 4.723580 -2.556462 6.249417 -3.004339 11.354426 -22.635932 0.083657 9.568096 0.000000 0.000000 0.000000 49.186795 -2.752959 2.076186 12.011116 0.480899 -3.319392 11.541669 1.647822 -0.751004 0.116005 2.319509 1.119592 0.000000 0.000000 0.000000 27.118499 1.220252 -0.814318 -22.788737 -5.000964 6.176653 -18.671622 5.000097 -6.805866 0.000000 0.000000 0.000000 26.000474 2.294855 -0.319055 4.046467 -2.589036 7.119163 6.708596 -17.421581 -5.002825 -34.431892 -46.077853 -33.307797 2.188006 -46.670164 3.233693 0.000000 0.000000 0.000000 25.160592 0.953546 -0.074743 -2.399315 34.066716 11.407168 7.440882 9.348243 3.026805 -50.914187 22.102555 26.823669 2.698543 38.819366 -4.279535 0.000000 0.000000 0.000000 
4.320391 77.738556 -13.197292 0.000000 0.000000 0.000000 41.991409 2.907292 -1.430907 -82.854873 5.389018 19.433722 37.031742 10.061319 -3.236730 5.850825 15.397454 -9.920396 2.096638 1.219322 -1.776516 0.000000 0.000000 0.000000 42.176333 2.336770 0.406749 -46.293325 10.441717 -11.973671 65.326894 4.027865 -2.391065 2.300525 -3.869961 9.013440 -13.493425 1.287929 7.567447 0.000000 0.000000 0.000000 44.915785 -4.442081 2.894749 12.619895 0.238727 -3.458888 11.598234 1.602130 -0.494492 0.046662 2.293648 1.082985 0.000000 0.000000 0.000000 27.046593 1.178086 -0.564150 -22.260362 -4.831209 6.201193 -17.927476 5.520520 -6.137403 0.000000 0.000000 0.000000 25.775855 2.215265 -0.115827 4.051365 -1.887397 5.727707 5.397549 -17.703152 -4.752832 -32.900728 -44.787627 -34.808355 1.862581 -46.448906 2.742222 0.000000 0.000000 0.000000 24.985911 0.926564 0.092912 -2.586846 33.057122 12.184734 7.954233 9.146382 3.795151 -49.213627 21.909462 29.412266 2.801112 37.288851 -4.815238 0.000000 0.000000 0.000000 
4.252575 79.117615 -12.101101 0.000000 0.000000 0.000000 38.258724 0.549078 -0.148952 -77.619376 5.958069 18.508330 34.622188 10.347322 -3.246815 5.064687 15.924666 -10.156297 1.773076 1.293616 -1.970060 0.000000 0.000000 0.000000 38.368519 -0.544527 1.860466 -49.741242 11.439851 -11.201971 65.905916 3.871642 -2.600426 0.126373 -3.551247 8.077664 -9.166542 1.665163 5.891655 0.000000 0.000000 0.000000 40.934720 -6.247574 3.515606 13.034698 0.061569 -3.501798 11.604424 1.632732 -0.246963 -0.074535 2.183081 1.084666 0.000000 0.000000 0.000000 26.903415 1.206973 -0.364859 -21.632129 -4.597704 6.083600 -17.115247 6.018310 -5.657715 0.000000 0.000000 0.000000 25.469946 2.217981 0.067463 4.039890 -1.286141 4.280656 4.163507 -17.710754 -4.512832 -31.566604 -43.269269 -36.563918 1.446218 -45.405557 2.175764 0.000000 0.000000 0.000000 24.736343 0.990589 0.235414 -2.640697 31.949883 12.722744 8.411830 8.818473 4.381330 -47.621356 21.491902 31.619708 2.732599 35.470866 -5.185652 0.000000 0.000000 0.000000 
4.160270 80.609909 -10.764744 0.000000 0.000000 0.000000 34.680682 -1.808338 0.669148 -72.378258 6.888808 18.213531 32.314540 10.513895 -3.337907 4.418297 16.050526 -10.286126 1.582902 1.341475 -2.052655 0.000000 0.000000 0.000000 34.611178 -3.546482 2.828212 -51.890375 12.256984 -10.723312 63.936397 4.095588 -2.973831 -1.002667 -2.371943 8.007623 -8.359918 1.517183 4.586533 0.000000 0.000000 0.000000 37.325362 -8.111690 3.814872 13.258703 -0.017283 -3.411551 11.561675 1.747647 -0.009945 -0.154670 2.091857 1.135898 0.000000 0.000000 0.000000 26.678283 1.293180 -0.202108 -20.948252 -4.297500 5.847464 -16.129604 6.573896 -5.389592 0.000000 0.000000 0.000000 25.084708 2.285998 0.244630 4.019481 -0.824757 2.896767 3.297984 -17.614809 -4.249075 -30.364590 -41.699527 -38.427600 1.097403 -43.836796 1.668634 0.000000 0.000000 0.000000 24.425276 1.132803 0.365682 -2.561040 30.779213 13.016966 8.745309 8.286853 4.970675 -45.952761 20.757602 33.321105 2.544409 33.715945 -5.427439 0.000000 0.000000 0.000000 
3.999122 82.234787 -9.247761 0.000000 0.000000 0.000000 31.276874 -4.018345 0.939130 -67.194718 8.241990 18.435802 29.951968 10.750009 -3.428303 4.142492 15.987063 -10.340666 1.726770 1.384842 -2.105973 0.000000 0.000000 0.000000 30.956401 -6.110290 3.060209 -52.671229 12.371160 -10.792381 59.815047 4.242543 -3.239408 -1.620654 -0.857648 8.219900 -9.529168 1.148882 3.462578 0.000000 0.000000 0.000000 34.009609 -9.755586 3.698238 13.343277 -0.040464 -3.189282 11.472447 1.903131 0.205281 -0.186100 1.916324 1.213771 0.000000 0.000000 0.000000 26.352456 1.396064 -0.064470 -20.279016 -3.935963 5.537169 -14.869283 7.170987 -5.302173 0.000000 0.000000 0.000000 24.618420 2.371985 0.426423 3.991522 -0.571552 1.661012 2.531353 -17.367989 -3.999572 -29.170020 -40.263408 -40.239913 0.925294 -42.070554 1.320796 0.000000 0.000000 0.000000 24.053563 1.304122 0.489796 -2.364325 29.554905 13.099244 9.111580 7.563209 5.641992 -44.250316 19.670269 34.612605 2.264466 32.356242 -5.582846 0.000000 0.000000 0.000000 
